<svg width="261" height="262" viewBox="0 0 261 262" fill="none" xmlns="http://www.w3.org/2000/svg">
<path d="M71.3668 216.409H56.0748C50.4438 216.409 45.8801 211.845 45.8801 206.214V111.404C45.8801 105.773 50.4438 101.209 56.0748 101.209H71.3668C76.9978 101.209 81.5615 105.773 81.5615 111.404V206.214C81.5615 211.845 76.9978 216.409 71.3668 216.409ZM85.1217 64.5063C85.1217 52.9716 75.7633 43.6092 64.2345 43.6092C52.6619 43.6092 43.3274 52.9716 43.3274 64.5063C43.3274 76.045 52.6619 85.4074 64.2345 85.4074C75.7633 85.4074 85.1217 76.045 85.1217 64.5063ZM215.108 206.214V153.031C215.108 122.106 208.575 99.1702 172.45 99.1702C155.091 99.1702 143.438 107.852 138.682 116.88H138.648V111.404C138.648 105.773 134.084 101.209 128.453 101.209H114.181C108.55 101.209 103.986 105.773 103.986 111.404V206.214C103.986 211.845 108.55 216.409 114.181 216.409H128.453C134.084 216.409 138.648 211.845 138.648 206.214V159.211C138.648 144.232 142.461 129.72 161.028 129.72C179.343 129.72 179.936 146.85 179.936 160.163V206.214C179.936 211.845 184.5 216.409 190.131 216.409H204.913C210.544 216.409 215.108 211.845 215.108 206.214ZM260.984 220.997C260.984 215.366 256.42 210.802 250.789 210.802C245.158 210.802 240.595 215.366 240.595 220.997C240.595 232.239 231.447 241.386 220.205 241.386H40.7788C29.5367 241.386 20.3894 232.239 20.3894 220.997V41.5703C20.3894 30.3282 29.5367 21.1809 40.7788 21.1809H220.205C231.447 21.1809 240.595 30.3282 240.595 41.5703V169.514C240.595 175.145 245.158 179.708 250.789 179.708C256.42 179.708 260.984 175.145 260.984 169.514V41.5703C260.984 19.0842 242.691 0.791504 220.205 0.791504H40.7788C18.2927 0.791504 0 19.0842 0 41.5703V220.997C0 243.483 18.2927 261.776 40.7788 261.776H220.205C242.691 261.776 260.984 243.483 260.984 220.997Z" fill="#20E0EE"/>
</svg>
