<svg width="250" height="250" viewBox="0 0 250 250" fill="none" xmlns="http://www.w3.org/2000/svg">
<path d="M236.458 170.169L211.367 149.612C195.021 136.221 169.646 137.488 154.733 152.4L153.737 153.396C151.237 155.896 147.163 155.877 144.698 153.411L96.2194 104.932C93.7721 102.485 93.7237 98.5485 96.082 96.0491C96.125 96.0037 96.1686 95.9589 96.2129 95.9141L96.0796 96.0473C96.1238 96.0031 96.168 95.9583 96.2123 95.9141C111.042 80.9418 112.461 55.4498 99.4705 39.0255L79.12 13.2975C66.0394 -3.24023 43.3055 -4.5177 28.3948 10.3931L24.6568 14.1311C-1.82767 40.6155 -8.06862 88.3502 11.7972 120.088C11.7972 120.088 23.4916 147.209 62.9569 186.674C102.422 226.139 129.543 237.834 129.543 237.834C161.577 257.216 208.999 251.475 235.478 224.996L239.038 221.436C253.96 206.514 252.794 183.552 236.458 170.169ZM221.01 203.41L217.45 206.969C199.272 225.148 164.738 229.332 142.739 216.022L141.243 215.116L139.637 214.423C137.665 213.573 132.722 210.893 125.25 205.881C111.979 196.98 97.0757 184.74 80.983 168.648C64.8904 152.555 52.6505 137.652 43.7495 124.381C38.7376 116.909 36.0572 111.966 35.2075 109.994L34.4379 108.21L33.4066 106.562C20.0315 85.1942 24.3437 50.4982 42.6835 32.1584L46.4215 28.4204C50.5664 24.2755 55.5221 24.5575 59.1263 29.1141L79.4767 54.8421C84.4946 61.1858 83.8451 72.2301 78.0541 78.0217C65.7347 90.4851 65.7956 110.563 78.1933 122.96L126.672 171.439C139.099 183.866 159.315 183.873 171.765 171.424L172.761 170.428C178.414 164.775 189.008 164.252 195.212 169.334L220.303 189.891C224.987 193.728 225.262 199.159 221.01 203.41Z" fill="#FF9345"/>
</svg>
