<svg width="308" height="226" viewBox="0 0 308 226" fill="none" xmlns="http://www.w3.org/2000/svg">
<path d="M269.127 0.62085H39.3608C17.9337 0.62085 0.500488 18.054 0.500488 39.4812V186.993C0.500488 208.42 17.9337 225.853 39.3608 225.853H269.127C290.554 225.853 307.987 208.42 307.987 186.993V39.4812C307.987 18.054 290.554 0.62085 269.127 0.62085ZM263.056 25.6877L154.244 109.744L45.432 25.6877H263.056ZM269.127 200.788H39.3608C31.7555 200.788 25.5673 194.6 25.5673 186.995V42.0179L146.582 135.501C148.838 137.244 151.542 138.114 154.244 138.114C156.946 138.114 159.65 137.244 161.906 135.501L282.92 42.0179V186.993C282.92 194.6 276.732 200.788 269.127 200.788Z" fill="#F35A50"/>
</svg>
