<svg width="262" height="261" viewBox="0 0 262 261" fill="none" xmlns="http://www.w3.org/2000/svg">
<path d="M189.407 0H72.5142C32.8181 0 0.522705 32.297 0.522705 71.993V188.885C0.522705 228.583 32.8181 260.879 72.5142 260.879H189.407C229.106 260.879 261.401 228.582 261.401 188.885V71.993C261.403 32.297 229.106 0 189.407 0ZM238.256 188.885C238.256 215.82 216.343 237.732 189.408 237.732H72.5142C45.581 237.734 23.6691 215.82 23.6691 188.885V71.993C23.6691 45.0599 45.581 23.1464 72.5142 23.1464H189.407C216.341 23.1464 238.255 45.0599 238.255 71.993V188.885H238.256Z" fill="#ED4CEE"/>
<path d="M130.963 63.2212C93.896 63.2212 63.7408 93.3763 63.7408 130.443C63.7408 167.508 93.896 197.662 130.963 197.662C168.029 197.662 198.184 167.508 198.184 130.443C198.184 93.3763 168.029 63.2212 130.963 63.2212ZM130.963 174.514C106.66 174.514 86.8873 154.744 86.8873 130.441C86.8873 106.138 106.659 86.3661 130.963 86.3661C155.266 86.3661 175.038 106.138 175.038 130.441C175.038 154.744 155.265 174.514 130.963 174.514Z" fill="#ED4CEE"/>
<path d="M201.003 43.5935C196.544 43.5935 192.163 45.3989 189.013 48.5623C185.849 51.7102 184.029 56.0926 184.029 60.5675C184.029 65.0286 185.85 69.4095 189.013 72.5728C192.161 75.7207 196.544 77.5416 201.003 77.5416C205.478 77.5416 209.845 75.7207 213.009 72.5728C216.172 69.4095 217.977 65.0271 217.977 60.5675C217.977 56.0926 216.172 51.7102 213.009 48.5623C209.861 45.3989 205.478 43.5935 201.003 43.5935Z" fill="#ED4CEE"/>
</svg>
