<svg width="31" height="33" viewBox="0 0 31 33" fill="none" xmlns="http://www.w3.org/2000/svg">
<path d="M18.7638 22.1874L18.7638 22.1875H18.7719H18.7966C19.0307 22.1875 19.2588 22.0981 19.4244 21.9343L30.4025 11.547C30.4027 11.5468 30.403 11.5466 30.4032 11.5463C30.5881 11.3734 30.6909 11.1294 30.6909 10.88C30.6909 10.6303 30.5879 10.386 30.4025 10.213L30.3869 10.1985L30.3695 10.1863L19.3871 2.52456L19.3872 2.52445L19.3794 2.51937L18.0287 1.63789C16.685 0.38559 14.595 0.38747 13.2494 1.6418L12.0039 2.52465L1.42136 9.80741L1.39872 9.82299L1.37928 9.84243L1.36986 9.85185L0.988344 10.2131C0.988075 10.2133 0.987806 10.2136 0.987537 10.2138C0.802694 10.3868 0.7 10.6308 0.7 10.8801C0.7 11.1294 0.802665 11.3733 0.987458 11.5463C0.987753 11.5465 0.988048 11.5468 0.988344 11.5471L1.36988 11.9083L1.3793 11.9178L1.37922 11.9178L1.38526 11.9236L11.9673 21.9349C11.9677 21.9353 11.9682 21.9357 11.9686 21.9361C12.1508 22.1114 12.3947 22.1933 12.6309 22.1874L12.6317 22.1874C12.8557 22.1812 13.0698 22.0888 13.2289 21.9362C13.2292 21.9359 13.2294 21.9356 13.2297 21.9354L14.5464 20.6885C15.1905 20.0792 16.2006 20.0791 16.8447 20.6884C16.8448 20.6884 16.8448 20.6884 16.8448 20.6885L18.1572 21.9311C18.1576 21.9314 18.1579 21.9317 18.1582 21.9321C18.3212 22.0885 18.5352 22.1812 18.7638 22.1874ZM18.206 3.91562L28.4076 10.9176L18.7919 20.0087L18.1028 19.3575C16.7548 18.0814 14.6395 18.0819 13.2878 19.3572L13.2876 19.3573L12.5984 20.0086L2.98717 10.9176L13.195 3.91367L13.195 3.9137L13.1987 3.91105L14.4627 3.01512L14.48 3.00287L14.4954 2.98831C15.1395 2.37897 16.1497 2.37897 16.7938 2.98831L16.8134 3.00686L16.836 3.02161L18.206 3.91562Z" fill="#F35A50" stroke="#F35A50" stroke-width="0.6"/>
<path d="M1.38822 32.0025L1.3894 32.0036C1.82018 32.4296 2.39328 32.6612 2.99682 32.6612H28.3997H28.4001C29.003 32.6612 29.5756 32.4301 30.0062 32.0049C30.1855 31.831 30.2814 31.5924 30.2814 31.3468C30.2814 31.0953 30.1771 30.8561 29.9939 30.6847C29.9936 30.6844 29.9933 30.6841 29.993 30.6839L19.4456 20.7107C19.4326 20.6957 19.4189 20.683 19.4053 20.6722L18.1043 19.4402L18.1043 19.4402C16.7562 18.164 14.6409 18.1645 13.2892 19.4398L13.2888 19.4402L11.9704 20.6888L11.9703 20.6887L11.9645 20.6945L11.9634 20.6956L1.40387 30.6839C1.4036 30.6841 1.40334 30.6844 1.40307 30.6846C1.21899 30.8568 1.11553 31.1005 1.11553 31.3468C1.11553 31.5909 1.21304 31.8273 1.38822 32.0025ZM18.162 22.0134L18.162 22.0135L18.168 22.0192L27.4815 30.8291H3.91878L13.2327 22.0192L13.2328 22.0193L13.2387 22.0134L13.2399 22.0122L14.5512 20.7707C15.1953 20.1613 16.2054 20.1613 16.8496 20.7707L18.1608 22.0122L18.162 22.0134Z" fill="#F35A50" stroke="#F35A50" stroke-width="0.6"/>
<path d="M2.0314 32.2672H2.82046L2.59888 32.0702C2.62038 32.0532 2.64121 32.035 2.66129 32.0157C2.66169 32.0153 2.66208 32.0149 2.66248 32.0145L13.2267 22.0209C13.227 22.0207 13.2273 22.0204 13.2276 22.0201C13.4124 21.8472 13.515 21.6032 13.515 21.3539C13.515 21.1046 13.4123 20.8606 13.2274 20.6876C13.2272 20.6874 13.2269 20.6872 13.2267 20.6869L2.63489 10.6657L2.6255 10.6563L2.62559 10.6562L2.61943 10.6504L2.24611 10.2976C1.98362 10.0477 1.59257 9.97352 1.25426 10.1211C0.921105 10.2665 0.700488 10.5949 0.700488 10.9629V30.3613C0.700488 30.9832 0.945872 31.5694 1.38915 32.0038C1.56841 32.1825 1.80214 32.2672 2.0314 32.2672ZM2.53265 13.093L11.2674 21.3581L2.53265 29.619V13.093Z" fill="#F35A50" stroke="#F35A50" stroke-width="0.6"/>
<path d="M29.369 32.2672V32.2672C29.6002 32.267 29.8289 32.1808 30.0065 32.0038C30.4487 31.5663 30.6952 30.9847 30.6952 30.3613V10.9629C30.6952 10.5949 30.4745 10.2665 30.1414 10.1211C29.8012 9.9727 29.4158 10.0494 29.1515 10.2957L29.1515 10.2957L29.1498 10.2973L18.169 20.6872C18.1687 20.6874 18.1684 20.6877 18.1682 20.6879C17.9833 20.8609 17.8807 21.1048 17.8807 21.3542C17.8807 21.6035 17.9833 21.8474 18.1682 22.0204C18.1684 22.0206 18.1687 22.0209 18.169 22.0212L28.7398 32.0168L28.7415 32.0184C28.9163 32.1811 29.1414 32.2672 29.369 32.2672ZM28.8677 13.0928V29.6153L20.1331 21.3544L28.8677 13.0928Z" fill="#F35A50" stroke="#F35A50" stroke-width="0.6"/>
</svg>
