<svg width="45" height="45" viewBox="0 0 45 45" fill="none" xmlns="http://www.w3.org/2000/svg">
<path fill-rule="evenodd" clip-rule="evenodd" d="M13.1252 22.5014C13.1176 19.9258 13.8321 17.3996 15.1877 15.2096C16.502 13.0825 18.4242 11.3987 20.7058 10.3758C22.9323 9.38296 25.4159 9.12042 27.8008 9.62582L28.142 9.70457C26.635 10.7106 25.3608 12.0276 24.4052 13.5671C23.0496 15.7571 22.3351 18.2833 22.3427 20.8589C22.3253 24.296 23.6102 27.6122 25.9389 30.1402C27.5339 31.8641 29.5968 33.0858 31.8752 33.6558C29.9594 34.9355 27.7084 35.6211 25.4045 35.6264C22.102 35.6066 18.9564 34.2141 16.7214 31.7827C14.3927 29.2547 13.1078 25.9385 13.1252 22.5014Z" fill="black" stroke="black" stroke-width="3" stroke-linecap="round" stroke-linejoin="round"/>
</svg>
