<svg width="50" height="50" viewBox="0 0 50 50" fill="none" xmlns="http://www.w3.org/2000/svg">
<path fill-rule="evenodd" clip-rule="evenodd" d="M30.4688 25C30.4688 28.0203 28.0203 30.4688 25 30.4688C21.9797 30.4688 19.5312 28.0203 19.5312 25C19.5312 21.9797 21.9797 19.5312 25 19.5312C28.0203 19.5312 30.4688 21.9797 30.4688 25Z" fill="white" stroke="white" stroke-width="3" stroke-linecap="round" stroke-linejoin="round"/>
<path d="M39.5827 26.4993C40.4111 26.4993 41.0827 25.8278 41.0827 24.9993C41.0827 24.1709 40.4111 23.4993 39.5827 23.4993V26.4993ZM35.9368 23.4993C35.1084 23.4993 34.4368 24.1709 34.4368 24.9993C34.4368 25.8278 35.1084 26.4993 35.9368 26.4993V23.4993ZM14.0618 26.4993C14.8903 26.4993 15.5618 25.8278 15.5618 24.9993C15.5618 24.1709 14.8903 23.4993 14.0618 23.4993V26.4993ZM10.416 23.4993C9.58759 23.4993 8.91602 24.1709 8.91602 24.9993C8.91602 25.8278 9.58759 26.4993 10.416 26.4993V23.4993ZM26.4993 10.416C26.4993 9.58759 25.8278 8.91602 24.9993 8.91602C24.1709 8.91602 23.4993 9.58759 23.4993 10.416H26.4993ZM23.4993 14.0618C23.4993 14.8903 24.1709 15.5618 24.9993 15.5618C25.8278 15.5618 26.4993 14.8903 26.4993 14.0618H23.4993ZM26.4993 35.9368C26.4993 35.1084 25.8278 34.4368 24.9993 34.4368C24.1709 34.4368 23.4993 35.1084 23.4993 35.9368H26.4993ZM23.4993 39.5827C23.4993 40.4111 24.1709 41.0827 24.9993 41.0827C25.8278 41.0827 26.4993 40.4111 26.4993 39.5827H23.4993ZM36.3725 15.7475C36.9583 15.1617 36.9583 14.212 36.3725 13.6262C35.7867 13.0404 34.837 13.0404 34.2512 13.6262L36.3725 15.7475ZM31.672 16.2054C31.0862 16.7911 31.0862 17.7409 31.672 18.3267C32.2578 18.9125 33.2076 18.9125 33.7933 18.3267L31.672 16.2054ZM18.3267 33.7933C18.9125 33.2076 18.9125 32.2578 18.3267 31.672C17.7409 31.0862 16.7911 31.0862 16.2054 31.672L18.3267 33.7933ZM13.6262 34.2512C13.0404 34.837 13.0404 35.7867 13.6262 36.3725C14.212 36.9583 15.1617 36.9583 15.7475 36.3725L13.6262 34.2512ZM15.7475 13.6262C15.1617 13.0404 14.212 13.0404 13.6262 13.6262C13.0404 14.212 13.0404 15.1617 13.6262 15.7475L15.7475 13.6262ZM16.2054 18.3267C16.7911 18.9125 17.7409 18.9125 18.3267 18.3267C18.9125 17.7409 18.9125 16.7911 18.3267 16.2054L16.2054 18.3267ZM33.7954 31.6741C33.2096 31.0883 32.2599 31.0883 31.6741 31.6741C31.0883 32.2599 31.0883 33.2096 31.6741 33.7954L33.7954 31.6741ZM34.2512 36.3725C34.837 36.9583 35.7867 36.9583 36.3725 36.3725C36.9583 35.7867 36.9583 34.837 36.3725 34.2512L34.2512 36.3725ZM39.5827 23.4993H35.9368V26.4993H39.5827V23.4993ZM14.0618 23.4993H10.416V26.4993H14.0618V23.4993ZM23.4993 10.416V14.0618H26.4993V10.416H23.4993ZM23.4993 35.9368V39.5827H26.4993V35.9368H23.4993ZM34.2512 13.6262L31.672 16.2054L33.7933 18.3267L36.3725 15.7475L34.2512 13.6262ZM16.2054 31.672L13.6262 34.2512L15.7475 36.3725L18.3267 33.7933L16.2054 31.672ZM13.6262 15.7475L16.2054 18.3267L18.3267 16.2054L15.7475 13.6262L13.6262 15.7475ZM31.6741 33.7954L34.2512 36.3725L36.3725 34.2512L33.7954 31.6741L31.6741 33.7954Z" fill="white"/>
</svg>
